<svg width="128" height="24" viewBox="0 0 128 24" fill="none" xmlns="http://www.w3.org/2000/svg">
<g clip-path="url(#clip0_517_65)">
<path d="M0 9.89964H1.71167V4.891C1.71167 3.37831 2.13936 2.1852 2.99566 1.31075C3.85103 0.437225 5.12481 0 6.81699 0C7.81988 0 8.6168 0.172297 9.20684 0.515963C9.79688 0.85963 10.2496 1.17921 10.5641 1.47378L8.76431 4.74464C8.40991 4.25369 7.95718 4.00821 7.40703 4.00821C6.9543 4.00821 6.60547 4.16568 6.35962 4.47971C6.11377 4.79373 5.99038 5.30506 5.99038 6.01185V9.90149H9.26621V13.5846H5.99038V23.4555H1.71167V13.5846H0V9.89964Z" fill="white"/>
<path d="M11.0947 4.80267C11.0947 4.09588 11.3498 3.52063 11.8619 3.07878C12.3731 2.63692 12.9835 2.41553 13.6914 2.41553C14.3993 2.41553 15.0338 2.63692 15.5357 3.07878C16.0376 3.52063 16.2881 4.09495 16.2881 4.80267C16.2881 5.51038 16.0376 6.08933 15.5357 6.54138C15.0338 6.99343 14.4187 7.21945 13.6914 7.21945C12.9641 7.21945 12.3731 6.99343 11.8619 6.54138C11.3498 6.08933 11.0947 5.51038 11.0947 4.80267ZM11.5381 9.89931H15.8465V23.4523H11.5381V9.89931Z" fill="white"/>
<path d="M17.9111 9.89962H20.3009V5.18555H24.5796V9.89962H26.9992V13.5826H24.5796V23.4536H20.3009V13.5826H17.9111V9.89962Z" fill="white"/>
<path d="M30.4234 16.6771C30.4234 17.6201 30.6247 18.4547 31.0283 19.1819C31.4309 19.9091 31.982 20.4834 32.6806 20.9058C33.3783 21.3282 34.1705 21.5394 35.0556 21.5394C36.1568 21.5394 37.1402 21.2939 38.0067 20.803C38.8723 20.312 39.4623 19.7331 39.7768 19.0643V22.0109C39.3046 22.5611 38.6302 22.9882 37.7553 23.2929C36.8795 23.5977 35.9796 23.7496 35.0556 23.7496C33.7373 23.7496 32.547 23.4448 31.4847 22.8362C30.4225 22.2277 29.581 21.3875 28.9613 20.3166C28.3416 19.2467 28.0317 18.0333 28.0317 16.678C28.0317 15.3228 28.3416 14.0853 28.9613 13.0246C29.581 11.964 30.4216 11.1293 31.4847 10.5198C32.547 9.91121 33.7373 9.60645 35.0556 9.60645C35.9796 9.60645 36.8804 9.75837 37.7553 10.0631C38.6302 10.3679 39.3046 10.7949 39.7768 11.3452V14.2918C39.4623 13.6239 38.8714 13.045 38.0067 12.5531C37.1411 12.0622 36.1577 11.8167 35.0556 11.8167C34.1705 11.8167 33.3783 12.0233 32.6806 12.4355C31.982 12.8477 31.4309 13.4229 31.0283 14.1594C30.6247 14.8958 30.4234 15.736 30.4234 16.679V16.6771Z" fill="white"/>
<path d="M42.2852 16.6765C42.2852 15.3019 42.595 14.0837 43.2147 13.0231C43.8345 11.9624 44.6759 11.1278 45.7382 10.5183C46.8004 9.90974 47.9907 9.60498 49.309 9.60498C50.6273 9.60498 51.8418 9.90974 52.8947 10.5183C53.9468 11.1278 54.7836 11.9615 55.4033 13.0231C56.0231 14.0847 56.3329 15.3019 56.3329 16.6765C56.3329 18.0512 56.0231 19.2452 55.4033 20.3151C54.7836 21.386 53.9477 22.2252 52.8947 22.8347C51.8418 23.4442 50.6468 23.7481 49.309 23.7481C47.9712 23.7481 46.8004 23.4433 45.7382 22.8347C44.6759 22.2261 43.8345 21.386 43.2147 20.3151C42.595 19.2452 42.2852 18.0317 42.2852 16.6765ZM44.6759 16.6765C44.6759 17.6195 44.8772 18.4541 45.2808 19.1813C45.6834 19.9085 46.2345 20.4828 46.9331 20.9052C47.6308 21.3276 48.4231 21.5388 49.3081 21.5388C50.1932 21.5388 50.9855 21.3276 51.6831 20.9052C52.3808 20.4828 52.9318 19.9085 53.3354 19.1813C53.738 18.4551 53.9403 17.6195 53.9403 16.6765C53.9403 15.7335 53.738 14.8943 53.3354 14.1569C52.9318 13.4205 52.3808 12.8462 51.6831 12.433C50.9845 12.0208 50.1932 11.8142 49.3081 11.8142C48.4231 11.8142 47.6308 12.0208 46.9331 12.433C46.2345 12.8452 45.6834 13.4205 45.2808 14.1569C44.8772 14.8933 44.6759 15.7335 44.6759 16.6765Z" fill="white"/>
<path d="M68.2825 15.2037C68.2825 12.9453 67.3186 11.8152 65.3908 11.8152C64.3675 11.8152 63.5363 12.1292 62.897 12.7582C62.2578 13.3871 61.9378 14.2014 61.9378 15.2037V23.4535H59.5767V9.89955H61.9378V12.0208C62.8228 10.4109 64.1699 9.60498 65.9808 9.60498C67.417 9.60498 68.5525 10.0811 69.3893 11.0343C70.2252 11.9875 70.6436 13.2788 70.6436 14.9091V23.4535H68.2825V15.2037Z" fill="white"/>
<path d="M83.7747 15.2037C83.7747 12.9453 82.8108 11.8152 80.883 11.8152C79.8597 11.8152 79.0284 12.1292 78.3892 12.7582C77.75 13.3871 77.4299 14.2014 77.4299 15.2037V23.4535H75.0688V9.89955H77.4299V12.0208C78.315 10.4109 79.6621 9.60498 81.473 9.60498C82.9091 9.60498 84.0447 10.0811 84.8815 11.0343C85.7174 11.9875 86.1358 13.2788 86.1358 14.9091V23.4535H83.7747V15.2037Z" fill="white"/>
<path d="M95.8138 23.7481C94.5549 23.7481 93.4388 23.4489 92.4647 22.8495C91.4905 22.2502 90.7335 21.4202 90.1926 20.3596C89.6518 19.2989 89.3809 18.0716 89.3809 16.6765C89.3809 15.2815 89.6611 14.0244 90.2223 12.9638C90.7827 11.9032 91.5694 11.0778 92.5834 10.4887C93.5965 9.89955 94.7719 9.60498 96.1097 9.60498C98.0969 9.60498 99.6602 10.2237 100.801 11.4613C101.943 12.6989 102.513 14.3978 102.513 16.5589C102.513 16.6969 102.508 16.8386 102.498 16.9859C102.488 17.1332 102.483 17.2268 102.483 17.2657H91.8013C91.8997 18.6209 92.3227 19.6723 93.0705 20.4179C93.8182 21.1646 94.8313 21.5379 96.1097 21.5379C97.9587 21.5379 99.3754 20.7227 100.359 19.0924L102.276 20.3003C100.86 22.5985 98.7055 23.7481 95.8138 23.7481ZM96.1088 11.6679C94.9482 11.6679 94.0038 11.9773 93.2755 12.5961C92.5472 13.2148 92.0852 14.1041 91.8885 15.2629H99.9441C99.8652 14.1829 99.4765 13.314 98.7788 12.6553C98.0802 11.9976 97.1905 11.6679 96.1088 11.6679Z" fill="white"/>
<path d="M106.82 16.6771C106.82 17.6201 107.021 18.4547 107.425 19.1819C107.828 19.9091 108.379 20.4834 109.077 20.9058C109.776 21.3282 110.567 21.5394 111.453 21.5394C112.554 21.5394 113.538 21.2939 114.404 20.803C115.27 20.312 115.86 19.7331 116.174 19.0643V22.0109C115.702 22.5611 115.029 22.9882 114.153 23.2929C113.277 23.5977 112.377 23.7496 111.453 23.7496C110.135 23.7496 108.945 23.4448 107.882 22.8362C106.82 22.2277 105.979 21.3875 105.359 20.3166C104.739 19.2467 104.429 18.0333 104.429 16.678C104.429 15.3228 104.739 14.0853 105.359 13.0246C105.979 11.964 106.82 11.1293 107.882 10.5198C108.945 9.91121 110.135 9.60645 111.453 9.60645C112.377 9.60645 113.278 9.75837 114.153 10.0631C115.028 10.3679 115.702 10.7949 116.174 11.3452V14.2918C115.86 13.6239 115.269 13.045 114.404 12.5531C113.539 12.0622 112.555 11.8167 111.453 11.8167C110.568 11.8167 109.776 12.0233 109.077 12.4355C108.379 12.8477 107.828 13.4229 107.425 14.1594C107.021 14.8958 106.82 15.736 106.82 16.679V16.6771Z" fill="white"/>
<path d="M117.798 9.89962H120.011V5.18555H122.372V9.89962H124.586V12.1098H122.372V23.4536H120.011V12.1098H117.798V9.89962Z" fill="white"/>
<path d="M124.753 22.2749C124.753 21.8228 124.915 21.4403 125.24 21.1253C125.565 20.8113 125.943 20.6538 126.376 20.6538C126.81 20.6538 127.212 20.8113 127.528 21.1253C127.842 21.4393 128 21.8228 128 22.2749C128 22.7269 127.842 23.0854 127.528 23.4096C127.213 23.7338 126.829 23.8959 126.376 23.8959C125.924 23.8959 125.565 23.7338 125.24 23.4096C124.915 23.0854 124.753 22.7075 124.753 22.2749Z" fill="white"/>
</g>
<defs>
<clipPath id="clip0_517_65">
<rect width="128" height="24" fill="white"/>
</clipPath>
</defs>
</svg>
