<svg preserveAspectRatio="none" overflow="visible" style="display: block;" width="30" height="18.75" viewBox="0 0 30 18.75" fill="none" xmlns="http://www.w3.org/2000/svg">
<g id="Group">
<path id="Vector" opacity="0.2" d="M11.25 1.875V16.875C11.25 17.1236 11.1512 17.3621 10.9754 17.5379C10.7996 17.7137 10.5611 17.8125 10.3125 17.8125H7.5C7.25136 17.8125 7.0129 17.7137 6.83709 17.5379C6.66127 17.3621 6.5625 17.1236 6.5625 16.875V1.875C6.5625 1.62636 6.66127 1.3879 6.83709 1.21209C7.0129 1.03627 7.25136 0.9375 7.5 0.9375H10.3125C10.5611 0.9375 10.7996 1.03627 10.9754 1.21209C11.1512 1.3879 11.25 1.62636 11.25 1.875ZM22.5 0.9375H19.6875C19.4389 0.9375 19.2004 1.03627 19.0246 1.21209C18.8488 1.3879 18.75 1.62636 18.75 1.875V16.875C18.75 17.1236 18.8488 17.3621 19.0246 17.5379C19.2004 17.7137 19.4389 17.8125 19.6875 17.8125H22.5C22.7486 17.8125 22.9871 17.7137 23.1629 17.5379C23.3387 17.3621 23.4375 17.1236 23.4375 16.875V1.875C23.4375 1.62636 23.3387 1.3879 23.1629 1.21209C22.9871 1.03627 22.7486 0.9375 22.5 0.9375Z" fill="#FFF7F7"/>
<path id="Vector_2" d="M29.0625 8.4375H28.125V4.6875C28.125 4.19022 27.9275 3.71331 27.5758 3.36168C27.2242 3.01004 26.7473 2.8125 26.25 2.8125H24.375V1.875C24.375 1.37772 24.1775 0.900805 23.8258 0.549175C23.4742 0.197544 22.9973 0 22.5 0H19.6875C19.1902 0 18.7133 0.197544 18.3617 0.549175C18.01 0.900805 17.8125 1.37772 17.8125 1.875V8.4375H12.1875V1.875C12.1875 1.37772 11.99 0.900805 11.6383 0.549175C11.2867 0.197544 10.8098 0 10.3125 0H7.5C7.00272 0 6.52581 0.197544 6.17417 0.549175C5.82254 0.900805 5.625 1.37772 5.625 1.875V2.8125H3.75C3.25272 2.8125 2.77581 3.01004 2.42417 3.36168C2.07254 3.71331 1.875 4.19022 1.875 4.6875V8.4375H0.9375C0.68886 8.4375 0.450403 8.53627 0.274587 8.71209C0.0987721 8.8879 0 9.12636 0 9.375C0 9.62364 0.0987721 9.8621 0.274587 10.0379C0.450403 10.2137 0.68886 10.3125 0.9375 10.3125H1.875V14.0625C1.875 14.5598 2.07254 15.0367 2.42417 15.3883C2.77581 15.74 3.25272 15.9375 3.75 15.9375H5.625V16.875C5.625 17.3723 5.82254 17.8492 6.17417 18.2008C6.52581 18.5525 7.00272 18.75 7.5 18.75H10.3125C10.8098 18.75 11.2867 18.5525 11.6383 18.2008C11.99 17.8492 12.1875 17.3723 12.1875 16.875V10.3125H17.8125V16.875C17.8125 17.3723 18.01 17.8492 18.3617 18.2008C18.7133 18.5525 19.1902 18.75 19.6875 18.75H22.5C22.9973 18.75 23.4742 18.5525 23.8258 18.2008C24.1775 17.8492 24.375 17.3723 24.375 16.875V15.9375H26.25C26.7473 15.9375 27.2242 15.74 27.5758 15.3883C27.9275 15.0367 28.125 14.5598 28.125 14.0625V10.3125H29.0625C29.3111 10.3125 29.5496 10.2137 29.7254 10.0379C29.9012 9.8621 30 9.62364 30 9.375C30 9.12636 29.9012 8.8879 29.7254 8.71209C29.5496 8.53627 29.3111 8.4375 29.0625 8.4375ZM3.75 14.0625V4.6875H5.625V14.0625H3.75ZM10.3125 16.875H7.5V1.875H10.3125V16.875ZM22.5 16.875H19.6875V1.875H22.5V14.9801C22.5 14.9871 22.5 14.993 22.5 15C22.5 15.007 22.5 15.0141 22.5 15.0199V16.875ZM26.25 14.0625H24.375V4.6875H26.25V14.0625Z" fill="#FFF7F7"/>
</g>
</svg>
